<svg id="Capa_1" enable-background="new 0 0 512 512" height="512" viewBox="0 0 512 512" width="512" xmlns="http://www.w3.org/2000/svg" xmlns:xlink="http://www.w3.org/1999/xlink"><linearGradient id="SVGID_1_" gradientUnits="userSpaceOnUse" x1="44.5" x2="467.5" y1="256" y2="256"><stop offset="0" stop-color="#00f2fe"/><stop offset=".0208" stop-color="#03effe"/><stop offset=".2931" stop-color="#24d2fe"/><stop offset=".5538" stop-color="#3cbdfe"/><stop offset=".7956" stop-color="#4ab0fe"/><stop offset="1" stop-color="#4facfe"/></linearGradient><path d="m447.5 432c-11.046 0-20 8.954-20 20 0 11.028-8.972 20-20 20h-303c-11.028 0-20-8.972-20-20v-46h280c11.046 0 20-8.954 20-20s-8.954-20-20-20h-278.984c2.981-14.519 12.432-28.629 26.939-39.803 15.514-11.951 43.903-26.197 91.045-26.197 11.046 0 20-8.954 20-20v-73h64v73.075c0 5.563 2.317 10.875 6.395 14.66 4.077 3.784 9.544 5.694 15.095 5.285l.24-.018c72.015.231 111.334 34.694 117.403 66.723 1.818 9.595 10.208 16.28 19.628 16.28 1.235 0 2.488-.115 3.746-.353 10.853-2.057 17.983-12.521 15.927-23.374-5.209-27.489-22.902-52.483-49.818-70.379-24.064-16-54.415-25.615-88.616-28.193v-53.706h50v21c0 11.046 8.954 20 20 20s20-8.954 20-20v-80c0-11.046-8.954-20-20-20s-20 8.954-20 20v19h-102v-23.371c23.278-8.273 40-30.549 40-56.676 0-24.175-14.659-36.951-25.362-46.28-10.132-8.83-13.407-12.382-13.407-20.673 0-11.046-9.185-20-20.231-20-5.588 0-10.142 1.616-13.724 4.569-4.804 3.961-16.002 15.721-25.857 29.462-14.212 19.819-21.419 37.625-21.419 52.923 0 26.126 16.722 48.402 40 56.676v23.37h-32c-11.046 0-20 8.954-20 20v73.772c-37.754 2.973-70.465 14.485-95.455 33.736-27.673 21.318-43.545 50.955-43.545 81.313v76.179c0 33.084 26.916 60 60 60h303c33.084 0 60-26.916 60-60 0-11.046-8.954-20-20-20zm-197.744-375.16c4.66 5.759 9.814 10.252 14.1 13.987 9.303 8.108 11.644 10.852 11.644 16.126 0 11.096-8.972 20.123-20 20.123s-20-9.027-20-20.123c0-7.85 6.707-19.65 14.256-30.113z" fill="url(#SVGID_1_)"/></svg>