<?xml version="1.0" encoding="iso-8859-1"?>
<!-- Generator: Adobe Illustrator 19.0.0, SVG Export Plug-In . SVG Version: 6.00 Build 0)  -->
<svg version="1.1" id="Layer_1" xmlns="http://www.w3.org/2000/svg" xmlns:xlink="http://www.w3.org/1999/xlink" x="0px" y="0px"
	 viewBox="0 0 512 512" style="enable-background:new 0 0 512 512;" xml:space="preserve">
<path style="fill:#EA348B;" d="M143.1,381.498H54.877l-5.337-10.673c-0.864-1.725-21.295-42.968-35.724-104.806
	c-13.377-57.335-23.834-143.98,2.322-231.166l4.128-13.76h157.445l4.128,13.76c26.155,87.184,15.698,173.831,2.321,231.166
	c-14.429,61.839-34.86,103.081-35.724,104.806L143.1,381.498z"/>
<path style="fill:#B02768;" d="M181.84,34.853l-4.128-13.76H95.105v360.405H143.1l5.337-10.673
	c0.864-1.725,21.295-42.968,35.724-104.806C197.538,208.684,207.995,122.039,181.84,34.853z"/>
<path style="fill:#EA348B;" d="M457.122,381.498h-88.223l-5.337-10.673c-0.864-1.725-21.295-42.968-35.724-104.806
	c-13.379-57.335-23.836-143.98,2.321-231.166l4.128-13.76h157.445l4.128,13.76c26.155,87.184,15.698,173.831,2.321,231.166
	c-14.429,61.839-34.86,103.081-35.724,104.806L457.122,381.498z"/>
<path style="fill:#B02768;" d="M495.862,34.853l-4.128-13.76h-82.607v360.405h47.996l5.337-10.673
	c0.864-1.725,21.295-42.968,35.724-104.806C511.56,208.684,522.017,122.039,495.862,34.853z"/>
<path style="fill:#CCF8F3;" d="M275.307,291.397h216.338c2.253-8,4.457-16.467,6.537-25.378c0.991-4.249,1.963-8.678,2.909-13.237
	H275.307v-69.507h235.492c0.88-12.446,1.308-25.361,1.16-38.615H0.042c-0.148,13.254,0.279,26.169,1.16,38.615h235.492v69.507
	H10.909c0.946,4.559,1.918,8.988,2.909,13.237c2.079,8.911,4.285,17.379,6.537,25.378h216.338v38.373L110.085,490.907h49.108
	l77.5-98.635v98.635h38.615v-98.635l77.499,98.635h49.108L275.306,329.77v-38.373H275.307z"/>
<path style="fill:#00D7DF;" d="M510.799,183.275c0.88-12.446,1.308-25.361,1.16-38.615H256v346.246h19.307v-98.635l77.499,98.635
	h49.108L275.306,329.77v-38.373h216.338c2.253-8,4.457-16.467,6.537-25.378c0.991-4.249,1.963-8.678,2.909-13.237H275.307v-69.507
	L510.799,183.275L510.799,183.275z"/>
<g>
</g>
<g>
</g>
<g>
</g>
<g>
</g>
<g>
</g>
<g>
</g>
<g>
</g>
<g>
</g>
<g>
</g>
<g>
</g>
<g>
</g>
<g>
</g>
<g>
</g>
<g>
</g>
<g>
</g>
</svg>
