<svg id="Capa_1" enable-background="new 0 0 512 512" height="512" viewBox="0 0 512 512" width="512" xmlns="http://www.w3.org/2000/svg" xmlns:xlink="http://www.w3.org/1999/xlink"><linearGradient id="SVGID_1_" gradientUnits="userSpaceOnUse" x1="0" x2="512" y1="256" y2="256"><stop offset="0" stop-color="#00f2fe"/><stop offset=".0208" stop-color="#03effe"/><stop offset=".2931" stop-color="#24d2fe"/><stop offset=".5538" stop-color="#3cbdfe"/><stop offset=".7956" stop-color="#4ab0fe"/><stop offset="1" stop-color="#4facfe"/></linearGradient><path d="m492 80h-121c-11.046 0-20 8.954-20 20s8.954 20 20 20v331.5c0 33.36 27.14 60.5 60.5 60.5s60.5-27.14 60.5-60.5v-150.5c0-11.046-8.954-20-20-20h-61v-161h41v92c0 11.046 8.954 20 20 20s20-8.954 20-20v-92c11.046 0 20-8.954 20-20s-8.954-20-20-20zm-40 241v130.5c0 11.304-9.196 20.5-20.5 20.5s-20.5-9.196-20.5-20.5v-130.5zm-272.559-13c-11.046 0-20-8.954-20-20s8.954-20 20-20 20 8.954 20 20-8.954 20-20 20zm-28.441 34c0 11.046-8.954 20-20 20s-20-8.954-20-20 8.954-20 20-20 20 8.954 20 20zm85.892-143.793c-6.616-3.257-10.892-10.245-10.892-17.802v-140.405c11.046 0 20-8.954 20-20s-8.954-20-20-20h-123c-11.046 0-20 8.954-20 20s8.954 20 20 20v139.983c0 7.567-4.281 14.559-10.906 17.811-27.03 13.271-49.905 33.756-66.154 59.244-16.617 26.064-25.583 56.336-25.929 87.543-.492 44.277 16.142 86.02 46.837 117.537 30.709 31.533 72.002 49.242 116.271 49.866.804.011 1.602.017 2.405.017 43.777-.001 84.953-16.868 116.17-47.648 31.796-31.352 49.306-73.206 49.306-117.853 0-31.354-9.196-61.995-26.595-88.609-16.677-25.512-40.023-46.15-67.513-59.684zm16.719 237.662c-24.106 23.769-56.075 36.615-89.927 36.118-53.926-.76-99.608-35.754-116.597-83.987h20.913c11.046 0 20-8.954 20-20s-8.954-20-20-20h-27.987c-.012-.989-.016-1.981-.005-2.975.531-47.817 27.244-90.474 69.713-111.325 20.217-9.925 33.279-31.01 33.279-53.717v-139.983h43v140.405c0 22.678 13.042 43.752 33.224 53.688 43.602 21.468 71.776 65.59 71.776 112.407 0 .504-.013 1.005-.018 1.508-.052 0-.103-.008-.155-.008h-96.827c-11.046 0-20 8.954-20 20s8.954 20 20 20h90.007c-6.233 17.851-16.515 34.182-30.396 47.869z" fill="url(#SVGID_1_)"/></svg>