<?xml version="1.0" encoding="iso-8859-1"?>
<!-- Generator: Adobe Illustrator 19.0.0, SVG Export Plug-In . SVG Version: 6.00 Build 0)  -->
<svg version="1.1" id="Capa_1" xmlns="http://www.w3.org/2000/svg" xmlns:xlink="http://www.w3.org/1999/xlink" x="0px" y="0px"
	 viewBox="0 0 512.001 512.001" style="enable-background:new 0 0 512.001 512.001;" xml:space="preserve">
<path style="fill:#FFF5CB;" d="M512.001,450h-450V0h450V450z"/>
<rect x="287" y="0" style="fill:#FFDBA9;" width="225" height="450"/>
<g>
	<rect x="412" y="195" style="fill:#FEC000;" width="30" height="39"/>
	<rect x="437" y="170" style="fill:#FEC000;" width="39" height="30"/>
	<rect x="437" y="120" style="fill:#FEC000;" width="39" height="30"/>
	<rect x="437" y="70" style="fill:#FEC000;" width="39" height="30"/>
</g>
<rect x="218" y="70" style="fill:#FFDB2D;" width="39" height="30"/>
<g>
	<rect x="412" y="36" style="fill:#FEC000;" width="30" height="39"/>
	<rect x="362" y="36" style="fill:#FEC000;" width="30" height="39"/>
	<rect x="312" y="36" style="fill:#FEC000;" width="30" height="39"/>
</g>
<rect x="252" y="36" style="fill:#FFDB2D;" width="30" height="39"/>
<path style="fill:#C06100;" d="M147.001,130c-24.813,0-45-20.187-45-45s20.187-45,45-45s45,20.187,45,45S171.814,130,147.001,130z"
	/>
<polygon style="fill:#D9A500;" points="415.001,450 385.001,450 385.001,369 427.001,369 427.001,328 457.001,328 457.001,399 
	415.001,399 "/>
<path style="fill:#703700;" d="M442.001,343c-22.056,0-40-17.944-40-40s17.944-40,40-40s40,17.944,40,40S464.057,343,442.001,343z"
	/>
<path style="fill:#AEADB3;" d="M452.001,210h-210V60h210V210z"/>
<path style="fill:#57555C;" d="M452.001,210h-165V60h165V210z"/>
<path style="fill:#FF4F19;" d="M45,512c-12.02,0-23.32-4.681-31.819-13.181C4.681,490.322,0,479.02,0,467s4.681-23.32,13.181-31.819
	l133.644-133.644l63.639,63.64L76.82,498.82C68.321,507.32,57.021,512,45,512z"/>
<path style="fill:#EE2500;" d="M178.644,333.357L13.181,498.82C21.68,507.32,32.98,512,45,512c12.021,0,23.321-4.681,31.82-13.181
	l133.643-133.643L178.644,333.357z"/>
<path style="fill:#49BBEE;" d="M256.001,404c-81.607,0-148-66.393-148-148s66.393-148,148-148s148,66.393,148,148
	S337.608,404,256.001,404z"/>
<path style="fill:#009AE5;" d="M360.722,151.418L151.419,360.722c57.705,57.705,151.598,57.705,209.304,0
	S418.427,209.123,360.722,151.418z"/>
<path style="fill:#FEC000;" d="M344.001,329h-80v-90h80V329z"/>
<path style="fill:#FFDB2D;" d="M274.001,248h-90v-80h90V248z"/>
<path style="fill:#C8C6CD;" d="M404.001,268h-160V108h15c79.953,0,145,65.047,145,145V268z"/>
<path style="fill:#AEADB3;" d="M404.001,253c0-39.977-16.262-76.227-42.518-102.482L244.001,268h160V253z"/>
<g>
</g>
<g>
</g>
<g>
</g>
<g>
</g>
<g>
</g>
<g>
</g>
<g>
</g>
<g>
</g>
<g>
</g>
<g>
</g>
<g>
</g>
<g>
</g>
<g>
</g>
<g>
</g>
<g>
</g>
</svg>
