<?xml version="1.0" encoding="iso-8859-1"?>
<!-- Generator: Adobe Illustrator 19.0.0, SVG Export Plug-In . SVG Version: 6.00 Build 0)  -->
<svg version="1.1" id="Layer_1" xmlns="http://www.w3.org/2000/svg" xmlns:xlink="http://www.w3.org/1999/xlink" x="0px" y="0px"
	 viewBox="0 0 512 512" style="enable-background:new 0 0 512 512;" xml:space="preserve">
<path style="fill:#FFDA44;" d="M457.626,121.139C417.004,47.783,366.381,7.385,315.077,7.385S213.15,47.783,172.528,121.139
	c-33.031,59.649-54.374,132.877-54.374,186.553c0,108.583,88.34,196.923,196.923,196.923S512,416.276,512,307.692
	C512,254.016,490.656,180.789,457.626,121.139z"/>
<path style="fill:#FF9811;" d="M315.077,504.615C423.66,504.615,512,416.276,512,307.692c0-53.676-21.344-126.904-54.374-186.553
	C417.004,47.783,366.381,7.385,315.077,7.385"/>
<path style="fill:#EA348B;" d="M510.011,277.331l-36.398-30.423l-0.008,0.007l-0.087-0.072l-52.147,45.072l-52.886-44.197
	l-52.143,45.073l-52.883-44.197l-52.139,45.072l-52.876-44.196l-38.958,33.678c-0.872,8.525-1.336,16.749-1.336,24.55
	c0,9.177,0.646,18.205,1.867,27.052l38.857-33.59l52.876,44.197l52.14-45.073l52.883,44.196l52.143-45.073l52.884,44.196
	l52.237-44.998l36.767,30.725c0.78-7.108,1.193-14.323,1.193-21.634C512,298.132,511.311,287.944,510.011,277.331z"/>
<path style="fill:#50412E;" d="M510.011,277.331l-36.398-30.423l-0.008,0.007l-0.087-0.072l-52.147,45.072l-52.886-44.197
	l-52.143,45.073l0.431,51.687l52.143-45.073l52.884,44.196l52.237-44.998l36.767,30.725c0.78-7.108,1.193-14.323,1.193-21.634
	C512,298.132,511.311,287.944,510.011,277.331z"/>
<path style="fill:#CCF8F3;" d="M196.923,7.385c-51.304,0-101.927,40.398-142.549,113.755C21.344,180.789,0,254.016,0,307.692
	c0,108.583,88.34,196.923,196.923,196.923S248.227,7.385,196.923,7.385z"/>
<path style="fill:#00D7DF;" d="M196.923,504.615c108.583,0,196.923-88.34,196.923-196.923c0-53.676-21.344-126.904-54.374-186.553
	C298.85,47.783,248.227,7.385,196.923,7.385"/>
<path style="fill:#EA348B;" d="M391.857,277.331l-36.398-30.423l-0.008,0.007l-0.087-0.072l-52.147,45.072l-52.886-44.197
	l-52.143,45.073l-52.883-44.197l-52.139,45.072l-52.876-44.196L1.336,283.143C0.465,291.668,0,299.892,0,307.692
	c0,9.177,0.646,18.205,1.867,27.052l38.857-33.59L93.6,345.352l52.14-45.073l52.883,44.196l52.143-45.073l52.884,44.196
	l52.237-44.998l36.767,30.725c0.78-7.108,1.193-14.323,1.193-21.634C393.846,298.132,393.157,287.944,391.857,277.331z"/>
<path style="fill:#B02768;" d="M391.857,277.331l-36.398-30.423l-0.008,0.007l-0.087-0.072l-52.147,45.072l-52.886-44.197
	l-52.143,45.073l0.431,51.687l52.143-45.073l52.884,44.196l52.237-44.998l36.767,30.725c0.78-7.108,1.193-14.323,1.193-21.634
	C393.846,298.132,393.157,287.944,391.857,277.331z"/>
<g>
</g>
<g>
</g>
<g>
</g>
<g>
</g>
<g>
</g>
<g>
</g>
<g>
</g>
<g>
</g>
<g>
</g>
<g>
</g>
<g>
</g>
<g>
</g>
<g>
</g>
<g>
</g>
<g>
</g>
</svg>
