<svg id="Capa_1" enable-background="new 0 0 512 512" height="512" viewBox="0 0 512 512" width="512" xmlns="http://www.w3.org/2000/svg"><g><path d="m433.893 140.293c.003-.067.017-.144.015-.207l-.255.186-380.05 277.331c1.066 41.661 14.923 90.808 14.923 90.808s67.46 3.802 72.824 3.58c47.256-1.952 79.825-12.826 96.803-32.323l184.998-212.45.426-.599c16.069-22.587 26.088-62.14 31.531-124.474z" fill="#97de3d"/><path d="m448.241 140.086-379.714 368.325s67.46 3.802 72.824 3.58c47.256-1.952 79.825-12.826 96.803-32.323l184.998-212.45.426-.599c16.069-22.587 26.088-62.14 31.531-124.474-.001 0-6.866-1.996-6.868-2.059z" fill="#59c36a"/><g><g><g><path d="m111.075 435.514c-10.537 0-21.99-.776-34.349-2.331-33.027-4.157-71.362-15.64-71.362-15.64s-3.833-39.961-1.502-73.142c3.311-47.123 15.109-79.333 35.067-95.733l244.778-201.155c19.973-16.414 111.458 60.525 111.458 60.525s47.134 91.742 27.16 108.155l-244.779 201.154c-14.712 12.091-36.999 18.167-66.471 18.167z" fill="#00a66c"/></g></g></g><g><path d="m389.124 103.082-383.752 314.463c.172.052 38.402 11.49 71.354 15.638 12.359 1.555 23.811 2.331 34.349 2.331 29.472 0 51.758-6.076 66.471-18.167l244.779-201.155c19.974-16.413-27.16-108.156-27.16-108.156s-2.22-1.866-6.041-4.954z" fill="#008455"/></g><g fill="#97de3d"><path d="m91.248 312.931c-20.264-1.988-38.303 12.827-40.291 33.091-1.042 10.624 2.54 20.632 9.099 28.04l57.059-46.59c-5.99-7.964-15.167-13.491-25.867-14.541z"/><path d="m205.508 219.089c-20.264-1.988-38.303 12.827-40.291 33.091-1.057 10.776 2.637 20.922 9.376 28.36l57.034-46.57c-5.983-8.146-15.268-13.816-26.119-14.881z"/><path d="m319.767 125.247c-20.264-1.988-38.303 12.827-40.291 33.091-1.072 10.927 2.748 21.202 9.668 28.668l56.987-46.531c-5.973-8.331-15.361-14.148-26.364-15.228z"/></g><g fill="#59c36a"><path d="m148.378 266.01c-20.264-1.988-38.303 12.827-40.291 33.091-1.05 10.7 2.588 20.777 9.237 28.2l57.051-46.583c-5.988-8.055-15.222-13.651-25.997-14.708z"/><path d="m262.637 172.168c-20.264-1.988-38.303 12.827-40.291 33.091-1.065 10.852 2.693 21.062 9.522 28.514l57.01-46.55c-5.977-8.239-15.314-13.983-26.241-15.055z"/></g><g fill="#00a66c"><path d="m141.178 339.392c20.264 1.988 38.303-12.827 40.291-33.091.976-9.949-2.105-19.356-7.886-26.596l-57.015 46.721c5.981 7.112 14.632 11.987 24.61 12.966z"/><path d="m255.438 245.55c20.264 1.988 38.303-12.827 40.291-33.091.97-9.89-2.07-19.243-7.784-26.466l-57.009 46.716c5.976 7.043 14.582 11.868 24.502 12.841z"/></g><g fill="#59c36a"><path d="m84.048 386.313c20.264 1.988 38.303-12.827 40.291-33.091.979-9.978-2.122-19.412-7.936-26.661l-57.018 46.723c5.982 7.147 14.656 12.047 24.663 13.029z"/><path d="m198.308 292.471c20.264 1.988 38.303-12.827 40.291-33.091.973-9.919-2.087-19.299-7.835-26.531l-57.012 46.718c5.978 7.078 14.607 11.928 24.556 12.904z"/><path d="m312.567 198.629c20.264 1.988 38.303-12.827 40.291-33.091.967-9.86-2.052-19.187-7.734-26.401l-57.006 46.713c5.975 7.009 14.56 11.809 24.449 12.779z"/></g><path d="m508.89 23.153-19.027-23.153-51.678 42.468c-14.195-3.65-34.787-8.415-53.659-10.79-46.927-5.907-80.847-.579-100.82 15.835l-22.856 18.783.027.098 7.315-2.004c34.734-9.52 71.599 2.586 93.925 30.842l31.057 37.451c23.296 29.484 25.642 70.707 5.867 102.644l23.284-19.134c19.974-16.413 31.773-48.658 35.073-95.839 1.327-18.971.644-40.101-.186-54.733z" fill="#59c36a"/><g><path d="m499.946 12.27-123.026 100.812 16.254 19.6c23.296 29.484 25.642 70.707 5.867 102.644l23.284-19.134c19.974-16.413 31.773-48.658 35.073-95.839 1.327-18.971.644-40.101-.186-54.733l51.677-42.467z" fill="#00a66c"/></g></g></svg>