<svg id="Capa_1" enable-background="new 0 0 512 512" height="512" viewBox="0 0 512 512" width="512" xmlns="http://www.w3.org/2000/svg"><g><path d="m480.107 266.113v-11.893c0-123.771-100.336-224.107-224.107-224.107l-20.016 50.309 20.016 45.369c70.929 0 128.429 57.5 128.429 128.429v31.909z" fill="#90e36a"/><path d="m256 30.113c-123.771 0-224.107 100.336-224.107 224.107v11.893l95.678 20.016v-31.909c0-70.929 57.5-128.429 128.429-128.429z" fill="#d6fc7e"/><path d="m512 266.113h-256l-10.008 85.67 25.008 10.008h37.75l15-10.008 15 10.008h37.75l15-10.008 15 10.008h37.75l15-10.008 15 10.008h37.75z" fill="#00cc76"/><path d="m0 266.113v95.678h37.75l15-10.008 15 10.008h37.75l15-10.008 15 10.008h37.75l15-10.008 15 10.008h37.75l15-10.008v-85.67z" fill="#90e36a"/><path d="m37.75 313.952h30v47.839h-30z" fill="#00cc76"/><path d="m105.5 313.952h30v47.839h-30z" fill="#00cc76"/><path d="m173.25 313.952h30v47.839h-30z" fill="#00cc76"/><g fill="#009986"><path d="m241 313.952h30v47.839h-30z"/><path d="m308.75 313.952h30v47.839h-30z"/><path d="m376.5 313.952h30v47.839h-30z"/><path d="m444.25 313.952h30v47.839h-30z"/></g><path d="m466.964 391.815-20.016 45.036 20.016 45.036 45.036-45.036z" fill="#7c84e8"/><path d="m436.94 391.815-20.016 45.036 20.016 45.036h30.024v-90.072z" fill="#534dcb"/><path d="m436.94 481.887v-90.072h-180.94l-20.016 45.036 20.016 45.036z" fill="#e1ebf0"/><path d="m60.048 481.887h195.952v-90.072h-195.952l-20.016 45.024z" fill="#fff5f5"/><path d="m30.024 391.815-20.016 45.024 20.016 45.048h30.024v-90.072z" fill="#b4d2d7"/><path d="m0 391.815h30.024v90.072h-30.024z" fill="#87a0af"/></g></svg>