<svg id="Layer_1" enable-background="new 0 0 512.177 512.177" height="512" viewBox="0 0 512.177 512.177" width="512" xmlns="http://www.w3.org/2000/svg" xmlns:xlink="http://www.w3.org/1999/xlink"><linearGradient id="SVGID_1_" gradientUnits="userSpaceOnUse" x1=".089" x2="512.089" y1="256.089" y2="256.089"><stop offset="0" stop-color="#00f2fe"/><stop offset=".0208" stop-color="#03effe"/><stop offset=".2931" stop-color="#24d2fe"/><stop offset=".5538" stop-color="#3cbdfe"/><stop offset=".7956" stop-color="#4ab0fe"/><stop offset="1" stop-color="#4facfe"/></linearGradient><path d="m395.915.61c-14.496-2.278-29.193 1.883-40.333 11.409-11.117 9.507-17.493 23.35-17.493 37.977v58.31c-26.097 2.487-53.613 3.754-82 3.754-28.401 0-55.908-1.271-82-3.759v-58.295c0-14.634-6.38-28.479-17.504-37.987-11.148-9.526-25.855-13.677-40.352-11.394-95.994 15.138-116.144 47.298-116.144 71.611v367.881c0 24.27 20.155 56.367 116.174 71.45 2.603.409 5.21.61 7.804.61 11.852 0 23.389-4.203 32.529-12.019 11.117-9.507 17.493-23.35 17.493-37.977v-58.305c26.089-2.487 53.596-3.759 82-3.759 28.387 0 55.903 1.267 82 3.754v58.3c0 14.633 6.38 28.479 17.505 37.987 9.139 7.811 20.669 12.009 32.516 12.009 2.604 0 5.223-.203 7.834-.615 95.268-15.023 115.835-46.811 116.141-71.057.002-.125.003-.252.003-.378v-73.057c0-11.046-8.954-20-20-20s-20 8.954-20 20v26.036c-9.725-4.468-21.231-8.562-34.579-12.297-10.638-2.977-21.673 3.235-24.649 13.872-2.976 10.638 3.234 21.673 13.872 24.649 31.479 8.807 42.976 17.59 45.327 20.883-.713 3.778-15.969 21.37-82.346 31.838-4.01.63-6.815-1.165-8.132-2.29-1.305-1.115-3.493-3.583-3.493-7.58v-412.174c0-3.996 2.187-6.463 3.491-7.578 1.317-1.125 4.125-2.922 8.128-2.293 67.13 10.544 81.978 28.315 82.372 31.797-2.291 3.289-13.578 12.112-44.464 20.901-10.624 3.023-16.786 14.086-13.763 24.71 2.502 8.795 10.515 14.531 19.226 14.531 1.812 0 3.655-.248 5.484-.769 12.834-3.652 24.046-7.693 33.526-12.075v147.839c0 11.046 8.954 20 20 20s20-8.954 20-20v-195c.001-24.27-20.155-56.368-116.173-71.45zm-261.826 461.571c0 3.996-2.187 6.462-3.491 7.578-1.317 1.126-4.127 2.925-8.128 2.293-59.372-9.326-77.847-24.303-81.597-30.05.082-.565.149-1.135.183-1.714 2.214-3.227 13.636-12.089 45.359-20.968 10.637-2.977 16.846-14.014 13.869-24.65s-14.014-16.845-24.65-13.869c-13.755 3.85-25.638 8.114-35.544 12.735v-274.789c9.691 4.564 21.233 8.766 34.526 12.549 1.83.521 3.671.769 5.484.769 8.711 0 16.724-5.737 19.226-14.531 3.023-10.624-3.139-21.687-13.763-24.71-31.071-8.842-42.312-17.72-44.508-20.962-.031-.521-.097-1.033-.167-1.542 3.782-5.796 22.283-20.832 81.576-30.182.574-.09 1.123-.131 1.646-.131 3.133 0 5.356 1.456 6.486 2.421 1.304 1.115 3.493 3.582 3.493 7.58zm122-102.063c-28.299 0-55.783 1.221-82 3.596v-215.25c26.22 2.375 53.704 3.596 82 3.596 28.285 0 55.774-1.221 82-3.595v215.248c-26.226-2.374-53.715-3.595-82-3.595z" fill="url(#SVGID_1_)"/></svg>